<mxfile host="app.diagrams.net" agent="Mozilla/5.0 (Windows NT 10.0; Win64; x64) AppleWebKit/537.36 (KHTML, like Gecko) Chrome/136.0.0.0 Safari/537.36" version="27.1.1">
  <diagram name="PÃ¡gina-1" id="tf0hJJFzr7SgCNeTlFzf">
    <mxGraphModel dx="1426" dy="767" grid="1" gridSize="10" guides="1" tooltips="1" connect="1" arrows="1" fold="1" page="1" pageScale="1" pageWidth="827" pageHeight="1169" math="0" shadow="0">
      <root>
        <mxCell id="0" />
        <mxCell id="1" parent="0" />
        <mxCell id="R29sgs0ILqhe5xD0LvE8-1" value="FiguraGeometrica" style="swimlane;fontStyle=1;align=center;verticalAlign=top;childLayout=stackLayout;horizontal=1;startSize=26;horizontalStack=0;resizeParent=1;resizeParentMax=0;resizeLast=0;collapsible=1;marginBottom=0;whiteSpace=wrap;html=1;" vertex="1" parent="1">
          <mxGeometry x="270" y="120" width="250" height="140" as="geometry" />
        </mxCell>
        <mxCell id="R29sgs0ILqhe5xD0LvE8-2" value="&lt;div&gt;- volumen : double&amp;nbsp;&amp;nbsp;&lt;/div&gt;&lt;div&gt;- superficie : double&lt;/div&gt;&lt;div&gt;&lt;br&gt;&lt;/div&gt;" style="text;strokeColor=none;fillColor=none;align=left;verticalAlign=top;spacingLeft=4;spacingRight=4;overflow=hidden;rotatable=0;points=[[0,0.5],[1,0.5]];portConstraint=eastwest;whiteSpace=wrap;html=1;" vertex="1" parent="R29sgs0ILqhe5xD0LvE8-1">
          <mxGeometry y="26" width="250" height="34" as="geometry" />
        </mxCell>
        <mxCell id="R29sgs0ILqhe5xD0LvE8-3" value="" style="line;strokeWidth=1;fillColor=none;align=left;verticalAlign=middle;spacingTop=-1;spacingLeft=3;spacingRight=3;rotatable=0;labelPosition=right;points=[];portConstraint=eastwest;strokeColor=inherit;" vertex="1" parent="R29sgs0ILqhe5xD0LvE8-1">
          <mxGeometry y="60" width="250" height="8" as="geometry" />
        </mxCell>
        <mxCell id="R29sgs0ILqhe5xD0LvE8-4" value="&lt;div&gt;+ setVolumen(volumen: double) : void&amp;nbsp;&amp;nbsp;&lt;/div&gt;&lt;div&gt;+ setSuperficie(superficie: double) : void&amp;nbsp;&amp;nbsp;&lt;/div&gt;&lt;div&gt;+ getVolumen() : double&amp;nbsp;&amp;nbsp;&lt;/div&gt;&lt;div&gt;+ getSuperficie() : double&lt;/div&gt;&lt;div&gt;&lt;br&gt;&lt;/div&gt;" style="text;strokeColor=none;fillColor=none;align=left;verticalAlign=top;spacingLeft=4;spacingRight=4;overflow=hidden;rotatable=0;points=[[0,0.5],[1,0.5]];portConstraint=eastwest;whiteSpace=wrap;html=1;" vertex="1" parent="R29sgs0ILqhe5xD0LvE8-1">
          <mxGeometry y="68" width="250" height="72" as="geometry" />
        </mxCell>
        <mxCell id="R29sgs0ILqhe5xD0LvE8-5" value="Cilindro" style="swimlane;fontStyle=1;align=center;verticalAlign=top;childLayout=stackLayout;horizontal=1;startSize=26;horizontalStack=0;resizeParent=1;resizeParentMax=0;resizeLast=0;collapsible=1;marginBottom=0;whiteSpace=wrap;html=1;" vertex="1" parent="1">
          <mxGeometry x="40" y="300" width="200" height="140" as="geometry" />
        </mxCell>
        <mxCell id="R29sgs0ILqhe5xD0LvE8-6" value="&lt;div&gt;- radio : double&amp;nbsp;&amp;nbsp;&lt;/div&gt;&lt;div&gt;- altura : double&lt;/div&gt;&lt;div&gt;&lt;br&gt;&lt;/div&gt;" style="text;strokeColor=none;fillColor=none;align=left;verticalAlign=top;spacingLeft=4;spacingRight=4;overflow=hidden;rotatable=0;points=[[0,0.5],[1,0.5]];portConstraint=eastwest;whiteSpace=wrap;html=1;" vertex="1" parent="R29sgs0ILqhe5xD0LvE8-5">
          <mxGeometry y="26" width="200" height="34" as="geometry" />
        </mxCell>
        <mxCell id="R29sgs0ILqhe5xD0LvE8-7" value="" style="line;strokeWidth=1;fillColor=none;align=left;verticalAlign=middle;spacingTop=-1;spacingLeft=3;spacingRight=3;rotatable=0;labelPosition=right;points=[];portConstraint=eastwest;strokeColor=inherit;" vertex="1" parent="R29sgs0ILqhe5xD0LvE8-5">
          <mxGeometry y="60" width="200" height="8" as="geometry" />
        </mxCell>
        <mxCell id="R29sgs0ILqhe5xD0LvE8-8" value="&lt;div&gt;+ Cilindro(radio: double, altura: double)&amp;nbsp;&amp;nbsp;&lt;/div&gt;&lt;div&gt;+ calcularVolumen() : double&amp;nbsp;&amp;nbsp;&lt;/div&gt;&lt;div&gt;+ calcularSuperficie() : double&lt;/div&gt;&lt;div&gt;&lt;br&gt;&lt;/div&gt;" style="text;strokeColor=none;fillColor=none;align=left;verticalAlign=top;spacingLeft=4;spacingRight=4;overflow=hidden;rotatable=0;points=[[0,0.5],[1,0.5]];portConstraint=eastwest;whiteSpace=wrap;html=1;" vertex="1" parent="R29sgs0ILqhe5xD0LvE8-5">
          <mxGeometry y="68" width="200" height="72" as="geometry" />
        </mxCell>
        <mxCell id="R29sgs0ILqhe5xD0LvE8-9" value="Esfera" style="swimlane;fontStyle=1;align=center;verticalAlign=top;childLayout=stackLayout;horizontal=1;startSize=26;horizontalStack=0;resizeParent=1;resizeParentMax=0;resizeLast=0;collapsible=1;marginBottom=0;whiteSpace=wrap;html=1;" vertex="1" parent="1">
          <mxGeometry x="290" y="300" width="200" height="120" as="geometry" />
        </mxCell>
        <mxCell id="R29sgs0ILqhe5xD0LvE8-10" value="&lt;div&gt;- radio : double&lt;/div&gt;&lt;div&gt;&lt;br&gt;&lt;/div&gt;" style="text;strokeColor=none;fillColor=none;align=left;verticalAlign=top;spacingLeft=4;spacingRight=4;overflow=hidden;rotatable=0;points=[[0,0.5],[1,0.5]];portConstraint=eastwest;whiteSpace=wrap;html=1;" vertex="1" parent="R29sgs0ILqhe5xD0LvE8-9">
          <mxGeometry y="26" width="200" height="26" as="geometry" />
        </mxCell>
        <mxCell id="R29sgs0ILqhe5xD0LvE8-11" value="" style="line;strokeWidth=1;fillColor=none;align=left;verticalAlign=middle;spacingTop=-1;spacingLeft=3;spacingRight=3;rotatable=0;labelPosition=right;points=[];portConstraint=eastwest;strokeColor=inherit;" vertex="1" parent="R29sgs0ILqhe5xD0LvE8-9">
          <mxGeometry y="52" width="200" height="8" as="geometry" />
        </mxCell>
        <mxCell id="R29sgs0ILqhe5xD0LvE8-12" value="&lt;div&gt;+ Esfera(radio: double)&amp;nbsp;&amp;nbsp;&lt;/div&gt;&lt;div&gt;+ calcularVolumen() : double&amp;nbsp;&amp;nbsp;&lt;/div&gt;&lt;div&gt;+ calcularSuperficie() : double&lt;/div&gt;&lt;div&gt;&lt;br&gt;&lt;/div&gt;" style="text;strokeColor=none;fillColor=none;align=left;verticalAlign=top;spacingLeft=4;spacingRight=4;overflow=hidden;rotatable=0;points=[[0,0.5],[1,0.5]];portConstraint=eastwest;whiteSpace=wrap;html=1;" vertex="1" parent="R29sgs0ILqhe5xD0LvE8-9">
          <mxGeometry y="60" width="200" height="60" as="geometry" />
        </mxCell>
        <mxCell id="R29sgs0ILqhe5xD0LvE8-13" value="Piramide" style="swimlane;fontStyle=1;align=center;verticalAlign=top;childLayout=stackLayout;horizontal=1;startSize=26;horizontalStack=0;resizeParent=1;resizeParentMax=0;resizeLast=0;collapsible=1;marginBottom=0;whiteSpace=wrap;html=1;" vertex="1" parent="1">
          <mxGeometry x="520" y="300" width="200" height="160" as="geometry" />
        </mxCell>
        <mxCell id="R29sgs0ILqhe5xD0LvE8-14" value="&lt;div&gt;- base : double&amp;nbsp;&amp;nbsp;&lt;/div&gt;&lt;div&gt;- altura : double&amp;nbsp;&amp;nbsp;&lt;/div&gt;&lt;div&gt;- apotema : double&lt;/div&gt;&lt;div&gt;&lt;br&gt;&lt;/div&gt;" style="text;strokeColor=none;fillColor=none;align=left;verticalAlign=top;spacingLeft=4;spacingRight=4;overflow=hidden;rotatable=0;points=[[0,0.5],[1,0.5]];portConstraint=eastwest;whiteSpace=wrap;html=1;" vertex="1" parent="R29sgs0ILqhe5xD0LvE8-13">
          <mxGeometry y="26" width="200" height="54" as="geometry" />
        </mxCell>
        <mxCell id="R29sgs0ILqhe5xD0LvE8-15" value="" style="line;strokeWidth=1;fillColor=none;align=left;verticalAlign=middle;spacingTop=-1;spacingLeft=3;spacingRight=3;rotatable=0;labelPosition=right;points=[];portConstraint=eastwest;strokeColor=inherit;" vertex="1" parent="R29sgs0ILqhe5xD0LvE8-13">
          <mxGeometry y="80" width="200" height="8" as="geometry" />
        </mxCell>
        <mxCell id="R29sgs0ILqhe5xD0LvE8-16" value="&lt;div&gt;+ Piramide(base: double, altura: double, apotema: double)&amp;nbsp;&amp;nbsp;&lt;/div&gt;&lt;div&gt;+ calcularVolumen() : double&amp;nbsp;&amp;nbsp;&lt;/div&gt;&lt;div&gt;+ calcularSuperficie() : double&lt;/div&gt;&lt;div&gt;&lt;br&gt;&lt;/div&gt;" style="text;strokeColor=none;fillColor=none;align=left;verticalAlign=top;spacingLeft=4;spacingRight=4;overflow=hidden;rotatable=0;points=[[0,0.5],[1,0.5]];portConstraint=eastwest;whiteSpace=wrap;html=1;" vertex="1" parent="R29sgs0ILqhe5xD0LvE8-13">
          <mxGeometry y="88" width="200" height="72" as="geometry" />
        </mxCell>
        <mxCell id="R29sgs0ILqhe5xD0LvE8-18" style="edgeStyle=orthogonalEdgeStyle;rounded=0;orthogonalLoop=1;jettySize=auto;html=1;entryX=0.013;entryY=0.978;entryDx=0;entryDy=0;entryPerimeter=0;" edge="1" parent="1" source="R29sgs0ILqhe5xD0LvE8-5" target="R29sgs0ILqhe5xD0LvE8-4">
          <mxGeometry relative="1" as="geometry" />
        </mxCell>
        <mxCell id="R29sgs0ILqhe5xD0LvE8-19" style="edgeStyle=orthogonalEdgeStyle;rounded=0;orthogonalLoop=1;jettySize=auto;html=1;exitX=0.5;exitY=0;exitDx=0;exitDy=0;entryX=0.463;entryY=0.989;entryDx=0;entryDy=0;entryPerimeter=0;" edge="1" parent="1" source="R29sgs0ILqhe5xD0LvE8-9" target="R29sgs0ILqhe5xD0LvE8-4">
          <mxGeometry relative="1" as="geometry" />
        </mxCell>
        <mxCell id="R29sgs0ILqhe5xD0LvE8-21" value="VentanaCilindro" style="swimlane;fontStyle=1;align=center;verticalAlign=top;childLayout=stackLayout;horizontal=1;startSize=26;horizontalStack=0;resizeParent=1;resizeParentMax=0;resizeLast=0;collapsible=1;marginBottom=0;whiteSpace=wrap;html=1;" vertex="1" parent="1">
          <mxGeometry x="25" y="500" width="230" height="190" as="geometry" />
        </mxCell>
        <mxCell id="R29sgs0ILqhe5xD0LvE8-22" value="&lt;div&gt;- contenedor : Container&amp;nbsp;&amp;nbsp;&lt;/div&gt;&lt;div&gt;- radio, altura, volumen, superficie : JLabel&amp;nbsp;&amp;nbsp;&lt;/div&gt;&lt;div&gt;- campoRadio, campoAltura : JTextField&amp;nbsp;&amp;nbsp;&lt;/div&gt;&lt;div&gt;- calcular : JButton&lt;/div&gt;&lt;div&gt;&lt;br&gt;&lt;/div&gt;" style="text;strokeColor=none;fillColor=none;align=left;verticalAlign=top;spacingLeft=4;spacingRight=4;overflow=hidden;rotatable=0;points=[[0,0.5],[1,0.5]];portConstraint=eastwest;whiteSpace=wrap;html=1;" vertex="1" parent="R29sgs0ILqhe5xD0LvE8-21">
          <mxGeometry y="26" width="230" height="104" as="geometry" />
        </mxCell>
        <mxCell id="R29sgs0ILqhe5xD0LvE8-23" value="" style="line;strokeWidth=1;fillColor=none;align=left;verticalAlign=middle;spacingTop=-1;spacingLeft=3;spacingRight=3;rotatable=0;labelPosition=right;points=[];portConstraint=eastwest;strokeColor=inherit;" vertex="1" parent="R29sgs0ILqhe5xD0LvE8-21">
          <mxGeometry y="130" width="230" height="8" as="geometry" />
        </mxCell>
        <mxCell id="R29sgs0ILqhe5xD0LvE8-24" value="&lt;div&gt;+ VentanaCilindro()&amp;nbsp;&amp;nbsp;&lt;/div&gt;&lt;div&gt;+ actionPerformed(e: ActionEvent) : void&lt;/div&gt;&lt;div&gt;&lt;br&gt;&lt;/div&gt;" style="text;strokeColor=none;fillColor=none;align=left;verticalAlign=top;spacingLeft=4;spacingRight=4;overflow=hidden;rotatable=0;points=[[0,0.5],[1,0.5]];portConstraint=eastwest;whiteSpace=wrap;html=1;" vertex="1" parent="R29sgs0ILqhe5xD0LvE8-21">
          <mxGeometry y="138" width="230" height="52" as="geometry" />
        </mxCell>
        <mxCell id="R29sgs0ILqhe5xD0LvE8-25" style="edgeStyle=orthogonalEdgeStyle;rounded=0;orthogonalLoop=1;jettySize=auto;html=1;exitX=0.5;exitY=0;exitDx=0;exitDy=0;entryX=1.02;entryY=0.935;entryDx=0;entryDy=0;entryPerimeter=0;" edge="1" parent="1" source="R29sgs0ILqhe5xD0LvE8-13" target="R29sgs0ILqhe5xD0LvE8-4">
          <mxGeometry relative="1" as="geometry" />
        </mxCell>
        <mxCell id="R29sgs0ILqhe5xD0LvE8-26" value="VentanaEsfera" style="swimlane;fontStyle=1;align=center;verticalAlign=top;childLayout=stackLayout;horizontal=1;startSize=26;horizontalStack=0;resizeParent=1;resizeParentMax=0;resizeLast=0;collapsible=1;marginBottom=0;whiteSpace=wrap;html=1;" vertex="1" parent="1">
          <mxGeometry x="270" y="505" width="230" height="160" as="geometry" />
        </mxCell>
        <mxCell id="R29sgs0ILqhe5xD0LvE8-27" value="&lt;div&gt;- contenedor : Container&amp;nbsp;&amp;nbsp;&lt;/div&gt;&lt;div&gt;- radio, volumen, superficie : JLabel&amp;nbsp;&amp;nbsp;&lt;/div&gt;&lt;div&gt;- campoRadio : JTextField&amp;nbsp;&amp;nbsp;&lt;/div&gt;&lt;div&gt;- calcular : JButton&lt;/div&gt;&lt;div&gt;&lt;br&gt;&lt;/div&gt;" style="text;strokeColor=none;fillColor=none;align=left;verticalAlign=top;spacingLeft=4;spacingRight=4;overflow=hidden;rotatable=0;points=[[0,0.5],[1,0.5]];portConstraint=eastwest;whiteSpace=wrap;html=1;" vertex="1" parent="R29sgs0ILqhe5xD0LvE8-26">
          <mxGeometry y="26" width="230" height="74" as="geometry" />
        </mxCell>
        <mxCell id="R29sgs0ILqhe5xD0LvE8-28" value="" style="line;strokeWidth=1;fillColor=none;align=left;verticalAlign=middle;spacingTop=-1;spacingLeft=3;spacingRight=3;rotatable=0;labelPosition=right;points=[];portConstraint=eastwest;strokeColor=inherit;" vertex="1" parent="R29sgs0ILqhe5xD0LvE8-26">
          <mxGeometry y="100" width="230" height="8" as="geometry" />
        </mxCell>
        <mxCell id="R29sgs0ILqhe5xD0LvE8-29" value="&lt;div&gt;+ VentanaEsfera()&amp;nbsp;&amp;nbsp;&lt;/div&gt;&lt;div&gt;+ actionPerformed(e: ActionEvent) : void&lt;/div&gt;&lt;div&gt;&lt;br&gt;&lt;/div&gt;" style="text;strokeColor=none;fillColor=none;align=left;verticalAlign=top;spacingLeft=4;spacingRight=4;overflow=hidden;rotatable=0;points=[[0,0.5],[1,0.5]];portConstraint=eastwest;whiteSpace=wrap;html=1;" vertex="1" parent="R29sgs0ILqhe5xD0LvE8-26">
          <mxGeometry y="108" width="230" height="52" as="geometry" />
        </mxCell>
        <mxCell id="R29sgs0ILqhe5xD0LvE8-30" value="VentanaPiramide" style="swimlane;fontStyle=1;align=center;verticalAlign=top;childLayout=stackLayout;horizontal=1;startSize=26;horizontalStack=0;resizeParent=1;resizeParentMax=0;resizeLast=0;collapsible=1;marginBottom=0;whiteSpace=wrap;html=1;" vertex="1" parent="1">
          <mxGeometry x="520" y="500" width="230" height="170" as="geometry" />
        </mxCell>
        <mxCell id="R29sgs0ILqhe5xD0LvE8-31" value="&lt;div&gt;- contenedor : Container&amp;nbsp;&amp;nbsp;&lt;/div&gt;&lt;div&gt;- base, altura, apotema, volumen, superficie : JLabel&amp;nbsp;&amp;nbsp;&lt;/div&gt;&lt;div&gt;- campoBase, campoAltura, campoApotema : JTextField&amp;nbsp;&amp;nbsp;&lt;/div&gt;&lt;div&gt;- calcular : JButton&lt;/div&gt;&lt;div&gt;&lt;br&gt;&lt;/div&gt;" style="text;strokeColor=none;fillColor=none;align=left;verticalAlign=top;spacingLeft=4;spacingRight=4;overflow=hidden;rotatable=0;points=[[0,0.5],[1,0.5]];portConstraint=eastwest;whiteSpace=wrap;html=1;" vertex="1" parent="R29sgs0ILqhe5xD0LvE8-30">
          <mxGeometry y="26" width="230" height="94" as="geometry" />
        </mxCell>
        <mxCell id="R29sgs0ILqhe5xD0LvE8-32" value="" style="line;strokeWidth=1;fillColor=none;align=left;verticalAlign=middle;spacingTop=-1;spacingLeft=3;spacingRight=3;rotatable=0;labelPosition=right;points=[];portConstraint=eastwest;strokeColor=inherit;" vertex="1" parent="R29sgs0ILqhe5xD0LvE8-30">
          <mxGeometry y="120" width="230" height="8" as="geometry" />
        </mxCell>
        <mxCell id="R29sgs0ILqhe5xD0LvE8-33" value="&lt;div&gt;+ VentanaPiramide()&amp;nbsp;&amp;nbsp;&lt;/div&gt;&lt;div&gt;+ actionPerformed(e: ActionEvent) : void&lt;/div&gt;&lt;div&gt;&lt;br&gt;&lt;/div&gt;" style="text;strokeColor=none;fillColor=none;align=left;verticalAlign=top;spacingLeft=4;spacingRight=4;overflow=hidden;rotatable=0;points=[[0,0.5],[1,0.5]];portConstraint=eastwest;whiteSpace=wrap;html=1;" vertex="1" parent="R29sgs0ILqhe5xD0LvE8-30">
          <mxGeometry y="128" width="230" height="42" as="geometry" />
        </mxCell>
        <mxCell id="R29sgs0ILqhe5xD0LvE8-34" value="VentanaPrincipal" style="swimlane;fontStyle=1;align=center;verticalAlign=top;childLayout=stackLayout;horizontal=1;startSize=30;horizontalStack=0;resizeParent=1;resizeParentMax=0;resizeLast=0;collapsible=1;marginBottom=0;whiteSpace=wrap;html=1;" vertex="1" parent="1">
          <mxGeometry x="280" y="760" width="230" height="120" as="geometry" />
        </mxCell>
        <mxCell id="R29sgs0ILqhe5xD0LvE8-35" value="&lt;div&gt;- contenedor : Container&amp;nbsp;&amp;nbsp;&lt;/div&gt;&lt;div&gt;- cilindro, esfera, piramide : JButton&lt;/div&gt;&lt;div&gt;&lt;br&gt;&lt;/div&gt;" style="text;strokeColor=none;fillColor=none;align=left;verticalAlign=top;spacingLeft=4;spacingRight=4;overflow=hidden;rotatable=0;points=[[0,0.5],[1,0.5]];portConstraint=eastwest;whiteSpace=wrap;html=1;" vertex="1" parent="R29sgs0ILqhe5xD0LvE8-34">
          <mxGeometry y="30" width="230" height="40" as="geometry" />
        </mxCell>
        <mxCell id="R29sgs0ILqhe5xD0LvE8-36" value="" style="line;strokeWidth=1;fillColor=none;align=left;verticalAlign=middle;spacingTop=-1;spacingLeft=3;spacingRight=3;rotatable=0;labelPosition=right;points=[];portConstraint=eastwest;strokeColor=inherit;" vertex="1" parent="R29sgs0ILqhe5xD0LvE8-34">
          <mxGeometry y="70" width="230" height="8" as="geometry" />
        </mxCell>
        <mxCell id="R29sgs0ILqhe5xD0LvE8-37" value="&lt;div&gt;+ VentanaPrincipal()&amp;nbsp;&amp;nbsp;&lt;/div&gt;&lt;div&gt;+ actionPerformed(e: ActionEvent) : void&lt;/div&gt;&lt;div&gt;&lt;br&gt;&lt;/div&gt;" style="text;strokeColor=none;fillColor=none;align=left;verticalAlign=top;spacingLeft=4;spacingRight=4;overflow=hidden;rotatable=0;points=[[0,0.5],[1,0.5]];portConstraint=eastwest;whiteSpace=wrap;html=1;" vertex="1" parent="R29sgs0ILqhe5xD0LvE8-34">
          <mxGeometry y="78" width="230" height="42" as="geometry" />
        </mxCell>
        <mxCell id="R29sgs0ILqhe5xD0LvE8-38" value="Principal" style="swimlane;fontStyle=0;childLayout=stackLayout;horizontal=1;startSize=26;fillColor=none;horizontalStack=0;resizeParent=1;resizeParentMax=0;resizeLast=0;collapsible=1;marginBottom=0;whiteSpace=wrap;html=1;" vertex="1" parent="1">
          <mxGeometry x="520" y="770" width="170" height="70" as="geometry" />
        </mxCell>
        <mxCell id="R29sgs0ILqhe5xD0LvE8-39" value="&lt;div&gt;+ main(args: String[]) : void&lt;/div&gt;&lt;div&gt;&lt;br&gt;&lt;/div&gt;" style="text;strokeColor=none;fillColor=none;align=left;verticalAlign=top;spacingLeft=4;spacingRight=4;overflow=hidden;rotatable=0;points=[[0,0.5],[1,0.5]];portConstraint=eastwest;whiteSpace=wrap;html=1;" vertex="1" parent="R29sgs0ILqhe5xD0LvE8-38">
          <mxGeometry y="26" width="170" height="44" as="geometry" />
        </mxCell>
        <mxCell id="R29sgs0ILqhe5xD0LvE8-42" value="" style="endArrow=none;html=1;rounded=0;exitX=0.5;exitY=0;exitDx=0;exitDy=0;" edge="1" parent="1" source="R29sgs0ILqhe5xD0LvE8-21">
          <mxGeometry width="50" height="50" relative="1" as="geometry">
            <mxPoint x="90" y="490" as="sourcePoint" />
            <mxPoint x="140" y="440" as="targetPoint" />
          </mxGeometry>
        </mxCell>
        <mxCell id="R29sgs0ILqhe5xD0LvE8-43" value="" style="endArrow=none;html=1;rounded=0;entryX=0.435;entryY=1;entryDx=0;entryDy=0;entryPerimeter=0;exitX=0.465;exitY=0.019;exitDx=0;exitDy=0;exitPerimeter=0;" edge="1" parent="1" source="R29sgs0ILqhe5xD0LvE8-26" target="R29sgs0ILqhe5xD0LvE8-12">
          <mxGeometry width="50" height="50" relative="1" as="geometry">
            <mxPoint x="377" y="500" as="sourcePoint" />
            <mxPoint x="360" y="440" as="targetPoint" />
          </mxGeometry>
        </mxCell>
        <mxCell id="R29sgs0ILqhe5xD0LvE8-44" value="" style="endArrow=none;html=1;rounded=0;exitX=0.47;exitY=-0.012;exitDx=0;exitDy=0;exitPerimeter=0;entryX=0.54;entryY=1.014;entryDx=0;entryDy=0;entryPerimeter=0;" edge="1" parent="1" source="R29sgs0ILqhe5xD0LvE8-30" target="R29sgs0ILqhe5xD0LvE8-16">
          <mxGeometry width="50" height="50" relative="1" as="geometry">
            <mxPoint x="620" y="500" as="sourcePoint" />
            <mxPoint x="626" y="460" as="targetPoint" />
          </mxGeometry>
        </mxCell>
        <mxCell id="R29sgs0ILqhe5xD0LvE8-45" value="" style="endArrow=none;html=1;rounded=0;exitX=0.25;exitY=0;exitDx=0;exitDy=0;" edge="1" parent="1" source="R29sgs0ILqhe5xD0LvE8-34">
          <mxGeometry width="50" height="50" relative="1" as="geometry">
            <mxPoint x="139.5" y="750" as="sourcePoint" />
            <mxPoint x="139.5" y="690" as="targetPoint" />
          </mxGeometry>
        </mxCell>
        <mxCell id="R29sgs0ILqhe5xD0LvE8-46" value="" style="endArrow=none;html=1;rounded=0;exitX=0.53;exitY=1.119;exitDx=0;exitDy=0;exitPerimeter=0;entryX=0.83;entryY=0.007;entryDx=0;entryDy=0;entryPerimeter=0;" edge="1" parent="1" source="R29sgs0ILqhe5xD0LvE8-33" target="R29sgs0ILqhe5xD0LvE8-34">
          <mxGeometry width="50" height="50" relative="1" as="geometry">
            <mxPoint x="710.5" y="790" as="sourcePoint" />
            <mxPoint x="440" y="764" as="targetPoint" />
          </mxGeometry>
        </mxCell>
        <mxCell id="R29sgs0ILqhe5xD0LvE8-47" value="" style="endArrow=none;html=1;rounded=0;exitX=0.5;exitY=0;exitDx=0;exitDy=0;entryX=0.543;entryY=0.923;entryDx=0;entryDy=0;entryPerimeter=0;" edge="1" parent="1" source="R29sgs0ILqhe5xD0LvE8-34" target="R29sgs0ILqhe5xD0LvE8-29">
          <mxGeometry width="50" height="50" relative="1" as="geometry">
            <mxPoint x="388" y="756" as="sourcePoint" />
            <mxPoint x="395" y="720" as="targetPoint" />
          </mxGeometry>
        </mxCell>
        <mxCell id="R29sgs0ILqhe5xD0LvE8-48" value="" style="endArrow=none;html=1;rounded=0;entryX=-0.006;entryY=0.295;entryDx=0;entryDy=0;entryPerimeter=0;" edge="1" parent="1" target="R29sgs0ILqhe5xD0LvE8-39">
          <mxGeometry width="50" height="50" relative="1" as="geometry">
            <mxPoint x="480" y="810" as="sourcePoint" />
            <mxPoint x="530" y="760" as="targetPoint" />
          </mxGeometry>
        </mxCell>
      </root>
    </mxGraphModel>
  </diagram>
</mxfile>
